<?xml version="1.0" encoding="UTF-8"?>
<svg version="1.1" xmlns="http://www.w3.org/2000/svg" width="512" height="512">
<path d="M0 0 C3.85027991 1.78200687 6.2799142 4.07675405 9.25 7.125 C10.14203125 8.03507812 11.0340625 8.94515625 11.953125 9.8828125 C12.96632813 10.93082031 12.96632813 10.93082031 14 12 C12.55685161 15.30297476 10.76741418 17.48149768 8.22437859 20.02171707 C7.43314909 20.81692867 6.64191959 21.61214026 5.82671344 22.43144917 C4.95318481 23.29915212 4.07965618 24.16685507 3.17965698 25.06085205 C1.79276946 26.45030285 1.79276946 26.45030285 0.377864 27.86782336 C-2.18989081 30.44005505 -4.76384834 33.00600084 -7.33884692 35.57097816 C-10.11409486 38.33759882 -12.88357055 41.10998694 -15.65374756 43.88168335 C-20.45447966 48.68346476 -25.25886354 53.48156724 -30.06573868 58.27719879 C-37.01568868 65.21090298 -43.96011733 72.15011537 -50.90320562 79.09068975 C-62.1677279 90.35083349 -73.43671039 101.60650254 -84.70849609 112.859375 C-95.65875379 123.79127803 -106.60691145 134.72527716 -117.55224609 145.66210938 C-118.22678165 146.33611948 -118.9013172 147.01012959 -119.59629323 147.70456424 C-122.98018644 151.08584741 -126.36403835 154.4671719 -129.74786973 157.84851694 C-157.82551242 185.90542216 -185.91039323 213.9550731 -214 242 C-212.49053489 245.18086518 -210.92058175 247.29869906 -208.375 249.75 C-207.42753906 250.67039062 -207.42753906 250.67039062 -206.4609375 251.609375 C-205.97882813 252.06828125 -205.49671875 252.5271875 -205 253 C-201.69702524 251.55685161 -199.51850232 249.76741418 -196.97828293 247.22437859 C-196.18307133 246.43314909 -195.38785974 245.64191959 -194.56855083 244.82671344 C-193.70084788 243.95318481 -192.83314493 243.07965618 -191.93914795 242.17965698 C-191.01284742 241.2550653 -190.08654688 240.33047362 -189.13217664 239.377864 C-186.55994495 236.81010919 -183.99399916 234.23615166 -181.42902184 231.66115308 C-178.66240118 228.88590514 -175.89001306 226.11642945 -173.11831665 223.34625244 C-168.31653524 218.54552034 -163.51843276 213.74113646 -158.72280121 208.93426132 C-151.78909702 201.98431132 -144.84988463 195.03988267 -137.90931025 188.09679438 C-126.64916651 176.8322721 -115.39349746 165.56328961 -104.140625 154.29150391 C-93.20872197 143.34124621 -82.27472284 132.39308855 -71.33789062 121.44775391 C-70.66388052 120.77321835 -69.98987041 120.0986828 -69.29543576 119.40370677 C-65.91415259 116.01981356 -62.5328281 112.63596165 -59.15148306 109.25213027 C-31.09457784 81.17448758 -3.0449269 53.08960677 25 25 C29.06533094 26.87432455 31.84846093 29.58045724 34.96191406 32.73486328 C35.5477124 33.32036957 36.13351074 33.90587585 36.73706055 34.50912476 C38.66802839 36.44148356 40.59181947 38.38082516 42.515625 40.3203125 C43.85468611 41.66310456 45.19419009 43.00545513 46.53411865 44.34738159 C50.05664429 47.87753717 53.57312203 51.41365806 57.08837891 54.9510498 C60.67768551 58.56082851 64.27267256 62.16494015 67.8671875 65.76953125 C74.91703318 72.84081558 81.96050337 79.91841413 89 87 C87.52639095 90.4072762 85.62365011 92.62517539 83.0057354 95.24036026 C82.16573836 96.08433939 81.32574133 96.92831852 80.46028984 97.79787278 C79.06828697 99.18113712 79.06828697 99.18113712 77.64816284 100.59234619 C76.65605732 101.58532373 75.66439135 102.57874061 74.67312825 103.57255912 C71.945753 106.3044126 69.21217029 109.02998034 66.47755122 111.75458002 C63.53052352 114.69298241 60.5892659 117.63715036 57.64730835 120.58062744 C52.5486437 125.68034153 47.44632576 130.77637676 42.3415184 135.86994171 C34.96080203 143.23441396 27.58560503 150.60439319 20.21174969 157.97573444 C8.24842728 169.93467804 -3.71935598 181.88914714 -15.68994141 193.84082031 C-27.31923524 205.45176016 -38.94642966 217.06479572 -50.57080078 228.68066406 C-51.28715427 229.39649211 -52.00350776 230.11232015 -52.74156894 230.84983996 C-56.33523915 234.44090012 -59.92886806 238.03200161 -63.52247643 241.62312365 C-93.34191698 271.42182589 -123.16859617 301.21327449 -153 331 C-156.12000206 329.50861533 -158.25775099 327.99000714 -160.70794678 325.53256226 C-161.7889994 324.45563362 -161.7889994 324.45563362 -162.89189148 323.35694885 C-163.67232315 322.56932663 -164.45275482 321.78170441 -165.25683594 320.97021484 C-166.08647354 320.14086929 -166.91611115 319.31152374 -167.77088928 318.45704651 C-170.51348464 315.71305719 -173.2489268 312.96205027 -175.984375 310.2109375 C-177.88338767 308.30708432 -179.7839031 306.40473405 -181.68438721 304.50234985 C-186.17547851 300.00504509 -190.66144767 295.50266689 -195.14559674 290.99844134 C-200.25167538 285.86999956 -205.36344159 280.74724302 -210.47569227 275.62495494 C-220.99013346 265.08961478 -231.49741465 254.54716018 -242 244 C-240.52639095 240.5927238 -238.62365011 238.37482461 -236.0057354 235.75963974 C-235.16573836 234.91566061 -234.32574133 234.07168148 -233.46028984 233.20212722 C-232.53228793 232.27995099 -231.60428602 231.35777477 -230.64816284 230.40765381 C-229.65605732 229.41467627 -228.66439135 228.42125939 -227.67312825 227.42744088 C-224.945753 224.6955874 -222.21217029 221.97001966 -219.47755122 219.24541998 C-216.53052352 216.30701759 -213.5892659 213.36284964 -210.64730835 210.41937256 C-205.5486437 205.31965847 -200.44632576 200.22362324 -195.3415184 195.13005829 C-187.96080203 187.76558604 -180.58560503 180.39560681 -173.21174969 173.02426556 C-161.24842728 161.06532196 -149.28064402 149.11085286 -137.31005859 137.15917969 C-125.68076476 125.54823984 -114.05357034 113.93520428 -102.42919922 102.31933594 C-101.71284573 101.60350789 -100.99649224 100.88767985 -100.25843106 100.15016004 C-96.66476085 96.55909988 -93.07113194 92.96799839 -89.47752357 89.37687635 C-59.65808302 59.57817411 -29.83140383 29.78672551 0 0 Z " fill="#020202" transform="translate(323,100)"/>
<path d="M0 0 C9.89828903 8.25055941 18.89801715 17.67999492 28.01147461 26.77124023 C30.45046753 29.20041533 32.89994103 31.61870612 35.34960938 34.03710938 C36.91992657 35.6009043 38.48961086 37.16533509 40.05859375 38.73046875 C40.78259872 39.44212692 41.5066037 40.1537851 42.25254822 40.88700867 C49.7958716 48.46354365 55.15008996 56.1407197 55.38061523 67.11523438 C55.33856468 83.56979825 47.84767545 92.3917567 36.421875 103.8515625 C35.54015625 104.72554688 34.6584375 105.59953125 33.75 106.5 C32.40421875 107.85738281 32.40421875 107.85738281 31.03125 109.2421875 C30.17015625 110.10070312 29.3090625 110.95921875 28.421875 111.84375 C27.64424805 112.61912109 26.86662109 113.39449219 26.06542969 114.19335938 C24 116 24 116 21 117 C-7.71 88.29 -36.42 59.58 -66 30 C-62.68259612 24.47099353 -58.83761849 20.50078758 -54.29589844 15.98022461 C-52.89119299 14.57865682 -51.50018118 13.16340825 -50.109375 11.74804688 C-36.84416759 -1.52660869 -17.97996213 -11.27391277 0 0 Z " fill="#020202" transform="translate(401,60)"/>
<path d="M0 0 C5.312876 4.43743753 10.25737163 9.11957049 15.13842773 14.02490234 C15.91973557 14.80606415 16.7010434 15.58722595 17.50602722 16.39205933 C20.0675958 18.95432017 22.62561188 21.52009637 25.18359375 24.0859375 C26.96699007 25.87120044 28.75060846 27.65624158 30.53443909 29.44107056 C34.73639203 33.64644123 38.93611407 37.85403107 43.13474089 42.06272185 C47.91879277 46.85798931 52.70571793 51.65038414 57.49287498 56.44255137 C67.33176179 66.29186304 77.16707255 76.14473914 87 86 C84.01082286 88.98917714 80.38188308 88.9258948 76.34692383 89.51220703 C75.45079376 89.64904907 74.5546637 89.78589111 73.63137817 89.92687988 C70.6577693 90.37872045 67.68251329 90.8184898 64.70703125 91.2578125 C62.64148932 91.56826045 60.57603522 91.87929329 58.51066589 92.19088745 C54.17445652 92.84324289 49.83744639 93.48989279 45.49975586 94.13232422 C39.94788741 94.95483828 34.39787474 95.78915335 28.84837818 96.62750435 C24.5792478 97.27147276 20.30935129 97.91023362 16.03919029 98.54732895 C13.99332329 98.85298745 11.94765739 99.15999524 9.9022007 99.4683876 C7.03554905 99.89956368 4.16797648 100.32398777 1.30004883 100.74658203 C0.03808434 100.93823441 0.03808434 100.93823441 -1.24937439 101.13375854 C-5.88956979 101.80933121 -10.31073715 102.12585894 -15 102 C-14.43086668 90.5002292 -12.83616166 79.25923806 -11.09375 67.890625 C-10.80573261 65.98734166 -10.51810116 64.08399989 -10.23083496 62.18060303 C-9.63240998 58.22338894 -9.03029644 54.26676042 -8.42529297 50.31054688 C-7.64912533 45.23392447 -6.88094762 40.1561318 -6.11528778 35.07791519 C-5.52428375 31.16229427 -4.92986007 27.24719881 -4.33430481 23.33226776 C-4.04953402 21.45844798 -3.7656658 19.5844908 -3.48271179 17.71039581 C-3.08885704 15.10620642 -2.69058151 12.50273244 -2.29101562 9.89941406 C-2.17462234 9.12443573 -2.05822906 8.3494574 -1.93830872 7.55099487 C-1.11440502 2.22881005 -1.11440502 2.22881005 0 0 Z " fill="#020202" transform="translate(71,354)"/>
</svg>
